<svg xmlns="http://www.w3.org/2000/svg" xmlns:xlink="http://www.w3.org/1999/xlink" viewBox="0 0 48 48"><defs><style>.cls-1{fill:none;}.cls-2{fill:url(#linear-gradient);}.cls-3{opacity:0.26;}.cls-4{fill:#fff;}</style><linearGradient id="linear-gradient" x1="17.64" y1="3.34" x2="26.7" y2="45.96" gradientUnits="userSpaceOnUse"><stop offset="0" stop-color="#b5fc11"/><stop offset="0.11" stop-color="#adf913"/><stop offset="0.29" stop-color="#98f019"/><stop offset="0.5" stop-color="#76e223"/><stop offset="0.75" stop-color="#45ce30"/><stop offset="1" stop-color="#0cb740"/></linearGradient></defs><title>icon</title><g id="Layer_2" data-name="Layer 2"><g id="Layer_1-2" data-name="Layer 1"><rect class="cls-1" width="48" height="48"/><path class="cls-2" d="M25.22,2.22A21.78,21.78,0,0,0,6.61,35.32h0c.7,1.35-2.92,5.77-5.6,9.52l8-6.36,0,0A21.78,21.78,0,1,0,25.22,2.22Z"/><path class="cls-3" d="M37.26,8.69C44.51,17.94,35.9,42.61,16,39.59L13.65,42.4l-3.3-2.48C31.44,24.71,38.6,12.25,37.26,8.69Z"/><path class="cls-4" d="M1,44.84l11.81-9.45a19.62,19.62,0,0,1,3.3-8.34l.48,3.62c.52-4.94,3.51-8,12.22-13.19l.53,2.64L30,17.29c4.26-3.36,6.62-6,7.29-8.6,5.08,7.41-.09,18.16-7,25.28H23.2l4.25,1.11c-3.62,2.68-7.74,3.15-12.12,2.51A66.25,66.25,0,0,0,34.72,16.73c-5.83,9.7-23.14,22.36-24.37,23.19C10.35,39.92,4.23,43.35,1,44.84Z"/></g></g></svg>